<?xml version="1.0" encoding="utf-8"?>
<!-- Generator: Adobe Illustrator 21.1.0, SVG Export Plug-In . SVG Version: 6.00 Build 0)  -->
<svg version="1.1" id="Layer_1" xmlns="http://www.w3.org/2000/svg" xmlns:xlink="http://www.w3.org/1999/xlink" x="0px" y="0px"
	 viewBox="0 0 30 30" style="enable-background:new 0 0 30 30;" xml:space="preserve">
<style type="text/css">
	.st0{fill:none;stroke:#000000;stroke-width:2;stroke-linecap:round;stroke-miterlimit:10;}
</style>
<path class="st0" d="M2.6,19C2.2,17.7,2,16.4,2,15C2,7.8,7.8,2,15,2s13,5.8,13,13c0,1.4-0.2,2.7-0.6,4"/>
<path class="st0" d="M2.6,11C2.2,12.3,2,13.6,2,15c0,5.6,3.5,10.4,8.5,12.2"/>
<path d="M2,21L2,21c-1.1,0-2-0.9-2-2v-6c0-1.1,0.9-2,2-2l0,0c1.1,0,2,0.9,2,2v6C4,20.1,3.1,21,2,21z"/>
<path d="M28,21L28,21c-1.1,0-2-0.9-2-2v-6c0-1.1,0.9-2,2-2l0,0c1.1,0,2,0.9,2,2v6C30,20.1,29.1,21,28,21z"/>
<circle cx="11" cy="27" r="2"/>
<g>
	<path d="M15,6c-4.9,0-9,4.1-9,9s4.1,9,9,9s9-4,9-9S20,6,15,6z M10,14.5c-0.8,0-1.5-0.7-1.5-1.5s0.7-1.5,1.5-1.5s1.5,0.7,1.5,1.5
		S10.8,14.5,10,14.5z M15,21c-1.7,0-3-1.3-3-3h6C18,19.7,16.7,21,15,21z M20,14.5c-0.8,0-1.5-0.7-1.5-1.5s0.7-1.5,1.5-1.5
		s1.5,0.7,1.5,1.5S20.8,14.5,20,14.5z"/>
</g>
</svg>
